<svg xmlns="http://www.w3.org/2000/svg" xmlns:xlink="http://www.w3.org/1999/xlink" width="800" zoomAndPan="magnify" viewBox="0 0 600 299.999988" height="400" preserveAspectRatio="xMidYMid meet" version="1.0"><defs><g/><clipPath id="2722103755"><path d="M 37.257812 48.835938 L 160.257812 48.835938 L 160.257812 251.335938 L 37.257812 251.335938 Z M 37.257812 48.835938 " clip-rule="nonzero"/></clipPath></defs><g clip-path="url(#2722103755)"><path fill="#00609c" d="M 37.257812 100.664062 L 126.847656 48.9375 L 126.847656 60.199219 L 46.308594 106.699219 L 46.308594 223.632812 L 37.257812 228.859375 Z M 70.566406 122.871094 L 160.160156 71.144531 L 160.160156 104.828125 L 99.738281 139.710938 L 99.738281 153.28125 L 160.160156 118.398438 L 160.160156 152.082031 L 99.738281 186.964844 L 99.738281 200.535156 L 160.160156 165.652344 L 160.160156 199.335938 L 70.566406 251.0625 Z M 70.566406 122.871094 " fill-opacity="1" fill-rule="evenodd"/></g><g fill="#00609c" fill-opacity="1"><g transform="translate(171.186648, 211.123965)"><g><path d="M 31.828125 -13.40625 C 31.828125 -15.238281 31.132812 -16.816406 29.75 -18.140625 C 28.363281 -19.460938 25.6875 -21.007812 21.71875 -22.78125 C 17.101562 -24.6875 13.851562 -26.316406 11.96875 -27.671875 C 10.082031 -29.023438 8.671875 -30.5625 7.734375 -32.28125 C 6.804688 -34.007812 6.34375 -36.066406 6.34375 -38.453125 C 6.34375 -42.710938 7.894531 -46.253906 11 -49.078125 C 14.113281 -51.898438 18.09375 -53.3125 22.9375 -53.3125 C 28.03125 -53.3125 32.125 -51.828125 35.21875 -48.859375 C 38.3125 -45.890625 39.859375 -42.082031 39.859375 -37.4375 L 31.34375 -37.4375 C 31.34375 -39.789062 30.550781 -41.796875 28.96875 -43.453125 C 27.394531 -45.117188 25.382812 -45.953125 22.9375 -45.953125 C 20.414062 -45.953125 18.4375 -45.300781 17 -44 C 15.570312 -42.695312 14.859375 -40.945312 14.859375 -38.75 C 14.859375 -37.007812 15.378906 -35.609375 16.421875 -34.546875 C 17.472656 -33.484375 20 -32.078125 24 -30.328125 C 30.351562 -27.847656 34.671875 -25.421875 36.953125 -23.046875 C 39.242188 -20.679688 40.390625 -17.675781 40.390625 -14.03125 C 40.390625 -9.476562 38.828125 -5.835938 35.703125 -3.109375 C 32.578125 -0.390625 28.382812 0.96875 23.125 0.96875 C 17.675781 0.96875 13.257812 -0.59375 9.875 -3.71875 C 6.488281 -6.851562 4.796875 -10.820312 4.796875 -15.625 L 13.40625 -15.625 C 13.5 -12.71875 14.382812 -10.441406 16.0625 -8.796875 C 17.738281 -7.160156 20.09375 -6.34375 23.125 -6.34375 C 25.957031 -6.34375 28.113281 -6.976562 29.59375 -8.25 C 31.082031 -9.519531 31.828125 -11.238281 31.828125 -13.40625 Z M 31.828125 -13.40625 "/></g></g></g><g fill="#00609c" fill-opacity="1"><g transform="translate(213.35253, 211.123965)"><g><path d="M 44.21875 -23.65625 C 44.21875 -15.363281 42.722656 -9.1875 39.734375 -5.125 C 36.753906 -1.0625 32.539062 0.96875 27.09375 0.96875 C 21.832031 0.96875 17.785156 -1.015625 14.953125 -4.984375 L 14.953125 20.125 L 6.4375 20.125 L 6.4375 -52.34375 L 14.171875 -52.34375 L 14.609375 -46.546875 C 17.484375 -51.054688 21.597656 -53.3125 26.953125 -53.3125 C 32.691406 -53.3125 36.976562 -51.3125 39.8125 -47.3125 C 42.65625 -43.3125 44.125 -37.328125 44.21875 -29.359375 Z M 35.703125 -28.546875 C 35.703125 -34.410156 34.796875 -38.738281 32.984375 -41.53125 C 31.179688 -44.320312 28.28125 -45.71875 24.28125 -45.71875 C 20.1875 -45.71875 17.078125 -43.671875 14.953125 -39.578125 L 14.953125 -12.34375 C 17.046875 -8.34375 20.1875 -6.34375 24.375 -6.34375 C 28.25 -6.34375 31.097656 -7.734375 32.921875 -10.515625 C 34.742188 -13.304688 35.671875 -17.570312 35.703125 -23.3125 Z M 35.703125 -28.546875 "/></g></g></g><g fill="#00609c" fill-opacity="1"><g transform="translate(259.243657, 211.123965)"><g><path d="M 15.625 0 L 7.0625 0 L 7.0625 -74.3125 L 15.625 -74.3125 Z M 15.625 0 "/></g></g></g><g fill="#00609c" fill-opacity="1"><g transform="translate(278.961271, 211.123965)"><g><path d="M 15.625 0 L 7.0625 0 L 7.0625 -52.34375 L 15.625 -52.34375 Z M 16.296875 -66.234375 C 16.296875 -64.773438 15.894531 -63.5625 15.09375 -62.59375 C 14.289062 -61.632812 13.066406 -61.15625 11.421875 -61.15625 C 9.804688 -61.15625 8.59375 -61.632812 7.78125 -62.59375 C 6.976562 -63.5625 6.578125 -64.769531 6.578125 -66.21875 C 6.578125 -67.675781 6.976562 -68.90625 7.78125 -69.90625 C 8.59375 -70.90625 9.804688 -71.40625 11.421875 -71.40625 C 13.035156 -71.40625 14.25 -70.894531 15.0625 -69.875 C 15.882812 -68.863281 16.296875 -67.648438 16.296875 -66.234375 Z M 16.296875 -66.234375 "/></g></g></g><g fill="#00609c" fill-opacity="1"><g transform="translate(298.678879, 211.123965)"><g><path d="M 14.46875 -52.34375 L 14.703125 -46.6875 C 18.023438 -51.101562 22.269531 -53.3125 27.4375 -53.3125 C 36.6875 -53.3125 41.378906 -47.132812 41.515625 -34.78125 L 41.515625 0 L 33 0 L 33 -34.390625 C 33 -38.492188 32.3125 -41.40625 30.9375 -43.125 C 29.5625 -44.851562 27.503906 -45.71875 24.765625 -45.71875 C 22.640625 -45.71875 20.726562 -45.003906 19.03125 -43.578125 C 17.34375 -42.160156 15.984375 -40.3125 14.953125 -38.03125 L 14.953125 0 L 6.390625 0 L 6.390625 -52.34375 Z M 14.46875 -52.34375 "/></g></g></g><g fill="#00609c" fill-opacity="1"><g transform="translate(344.217317, 211.123965)"><g><path d="M 55.046875 0 L 40.875 0 L 40.875 -30.140625 L 19.890625 -30.140625 L 19.890625 0 L 5.65625 0 L 5.65625 -70.4375 L 19.890625 -70.4375 L 19.890625 -41.9375 L 40.875 -41.9375 L 40.875 -70.4375 L 55.046875 -70.4375 Z M 55.046875 0 "/></g></g></g><g fill="#00609c" fill-opacity="1"><g transform="translate(402.058288, 211.123965)"><g><path d="M 30.71875 -4.796875 C 27.882812 -0.953125 24.078125 0.96875 19.296875 0.96875 C 14.492188 0.96875 10.847656 -0.679688 8.359375 -3.984375 C 5.878906 -7.296875 4.640625 -12.113281 4.640625 -18.4375 L 4.640625 -52.34375 L 18.328125 -52.34375 L 18.328125 -18.09375 C 18.398438 -13 20.097656 -10.453125 23.421875 -10.453125 C 26.546875 -10.453125 28.800781 -11.804688 30.1875 -14.515625 L 30.1875 -52.34375 L 43.96875 -52.34375 L 43.96875 0 L 31.109375 0 Z M 30.71875 -4.796875 "/></g></g></g><g fill="#00609c" fill-opacity="1"><g transform="translate(447.852659, 211.123965)"><g><path d="M 45.8125 -24.484375 C 45.8125 -15.992188 44.457031 -9.628906 41.75 -5.390625 C 39.039062 -1.148438 34.785156 0.96875 28.984375 0.96875 C 24.429688 0.96875 20.785156 -1.078125 18.046875 -5.171875 L 17.609375 0 L 4.984375 0 L 4.984375 -74.3125 L 18.671875 -74.3125 L 18.671875 -48.09375 C 21.253906 -51.570312 24.65625 -53.3125 28.875 -53.3125 C 34.6875 -53.3125 38.945312 -51.207031 41.65625 -47 C 44.363281 -42.789062 45.75 -36.625 45.8125 -28.5 Z M 32.125 -27.921875 C 32.125 -33.429688 31.59375 -37.128906 30.53125 -39.015625 C 29.46875 -40.898438 27.613281 -41.84375 24.96875 -41.84375 C 22.09375 -41.84375 19.992188 -40.535156 18.671875 -37.921875 L 18.671875 -14.078125 C 19.898438 -11.628906 22.03125 -10.40625 25.0625 -10.40625 C 27.675781 -10.40625 29.488281 -11.257812 30.5 -12.96875 C 31.519531 -14.675781 32.0625 -18 32.125 -22.9375 Z M 32.125 -27.921875 "/></g></g></g></svg>