<svg xmlns="http://www.w3.org/2000/svg" xmlns:xlink="http://www.w3.org/1999/xlink" width="800" zoomAndPan="magnify" viewBox="0 0 600 299.999988" height="400" preserveAspectRatio="xMidYMid meet" version="1.0"><defs><g/><clipPath id="e2ceed9ff8"><path d="M 102.160156 44 L 231 44 L 231 256 L 102.160156 256 Z M 102.160156 44 " clip-rule="nonzero"/></clipPath></defs><g clip-path="url(#e2ceed9ff8)"><path fill="#f1f2f3" d="M 102.160156 98.28125 L 196.074219 44.058594 L 196.074219 55.863281 L 111.648438 104.605469 L 111.648438 227.179688 L 102.160156 232.660156 Z M 137.074219 121.558594 L 230.992188 67.335938 L 230.992188 102.648438 L 167.65625 139.214844 L 167.65625 153.433594 L 230.992188 116.871094 L 230.992188 152.183594 L 167.65625 188.746094 L 167.65625 202.96875 L 230.992188 166.402344 L 230.992188 201.714844 L 137.074219 255.9375 Z M 137.074219 121.558594 " fill-opacity="1" fill-rule="evenodd"/></g><g fill="#f1f2f3" fill-opacity="1"><g transform="translate(246.978565, 197.997251)"><g><path d="M 46.15625 -19.4375 C 46.15625 -22.09375 45.148438 -24.378906 43.140625 -26.296875 C 41.128906 -28.222656 37.25 -30.46875 31.5 -33.03125 C 24.8125 -35.789062 20.097656 -38.148438 17.359375 -40.109375 C 14.617188 -42.078125 12.570312 -44.3125 11.21875 -46.8125 C 9.863281 -49.320312 9.1875 -52.304688 9.1875 -55.765625 C 9.1875 -61.941406 11.441406 -67.070312 15.953125 -71.15625 C 20.472656 -75.25 26.238281 -77.296875 33.25 -77.296875 C 40.632812 -77.296875 46.570312 -75.144531 51.0625 -70.84375 C 55.550781 -66.539062 57.796875 -61.023438 57.796875 -54.296875 L 45.453125 -54.296875 C 45.453125 -57.703125 44.304688 -60.609375 42.015625 -63.015625 C 39.722656 -65.429688 36.800781 -66.640625 33.25 -66.640625 C 29.601562 -66.640625 26.738281 -65.691406 24.65625 -63.796875 C 22.570312 -61.898438 21.53125 -59.363281 21.53125 -56.1875 C 21.53125 -53.65625 22.289062 -51.617188 23.8125 -50.078125 C 25.332031 -48.535156 28.992188 -46.503906 34.796875 -43.984375 C 44.003906 -40.378906 50.269531 -36.859375 53.59375 -33.421875 C 56.914062 -29.984375 58.578125 -25.625 58.578125 -20.34375 C 58.578125 -13.75 56.304688 -8.472656 51.765625 -4.515625 C 47.234375 -0.566406 41.15625 1.40625 33.53125 1.40625 C 25.625 1.40625 19.210938 -0.859375 14.296875 -5.390625 C 9.390625 -9.929688 6.9375 -15.6875 6.9375 -22.65625 L 19.4375 -22.65625 C 19.570312 -18.445312 20.851562 -15.148438 23.28125 -12.765625 C 25.71875 -10.378906 29.132812 -9.1875 33.53125 -9.1875 C 37.644531 -9.1875 40.773438 -10.109375 42.921875 -11.953125 C 45.078125 -13.804688 46.15625 -16.300781 46.15625 -19.4375 Z M 46.15625 -19.4375 "/></g></g></g><g fill="#f1f2f3" fill-opacity="1"><g transform="translate(308.111392, 197.997251)"><g><path d="M 64.109375 -34.296875 C 64.109375 -22.285156 61.945312 -13.332031 57.625 -7.4375 C 53.300781 -1.539062 47.1875 1.40625 39.28125 1.40625 C 31.65625 1.40625 25.785156 -1.46875 21.671875 -7.21875 L 21.671875 29.1875 L 9.328125 29.1875 L 9.328125 -75.890625 L 20.546875 -75.890625 L 21.1875 -67.484375 C 25.34375 -74.023438 31.304688 -77.296875 39.078125 -77.296875 C 47.398438 -77.296875 53.617188 -74.394531 57.734375 -68.59375 C 61.847656 -62.800781 63.972656 -54.128906 64.109375 -42.578125 Z M 51.765625 -41.390625 C 51.765625 -49.898438 50.453125 -56.175781 47.828125 -60.21875 C 45.210938 -64.257812 41.007812 -66.28125 35.21875 -66.28125 C 29.269531 -66.28125 24.753906 -63.3125 21.671875 -57.375 L 21.671875 -17.890625 C 24.710938 -12.085938 29.273438 -9.1875 35.359375 -9.1875 C 40.960938 -9.1875 45.085938 -11.207031 47.734375 -15.25 C 50.378906 -19.300781 51.722656 -25.488281 51.765625 -33.8125 Z M 51.765625 -41.390625 "/></g></g></g><g fill="#f1f2f3" fill-opacity="1"><g transform="translate(374.645144, 197.997251)"><g><path d="M 22.65625 0 L 10.234375 0 L 10.234375 -107.75 L 22.65625 -107.75 Z M 22.65625 0 "/></g></g></g><g fill="#f1f2f3" fill-opacity="1"><g transform="translate(403.232083, 197.997251)"><g><path d="M 22.65625 0 L 10.234375 0 L 10.234375 -75.890625 L 22.65625 -75.890625 Z M 23.640625 -96.03125 C 23.640625 -93.925781 23.050781 -92.171875 21.875 -90.765625 C 20.707031 -89.359375 18.929688 -88.65625 16.546875 -88.65625 C 14.210938 -88.65625 12.460938 -89.359375 11.296875 -90.765625 C 10.128906 -92.171875 9.546875 -93.925781 9.546875 -96.03125 C 9.546875 -98.132812 10.128906 -99.910156 11.296875 -101.359375 C 12.460938 -102.804688 14.210938 -103.53125 16.546875 -103.53125 C 18.890625 -103.53125 20.65625 -102.789062 21.84375 -101.3125 C 23.039062 -99.84375 23.640625 -98.082031 23.640625 -96.03125 Z M 23.640625 -96.03125 "/></g></g></g><g fill="#f1f2f3" fill-opacity="1"><g transform="translate(431.819013, 197.997251)"><g><path d="M 20.96875 -75.890625 L 21.328125 -67.6875 C 26.140625 -74.09375 32.285156 -77.296875 39.765625 -77.296875 C 53.191406 -77.296875 60 -68.34375 60.1875 -50.4375 L 60.1875 0 L 47.84375 0 L 47.84375 -49.875 C 47.84375 -55.8125 46.847656 -60.03125 44.859375 -62.53125 C 42.867188 -65.03125 39.890625 -66.28125 35.921875 -66.28125 C 32.828125 -66.28125 30.050781 -65.25 27.59375 -63.1875 C 25.144531 -61.132812 23.171875 -58.453125 21.671875 -55.140625 L 21.671875 0 L 9.265625 0 L 9.265625 -75.890625 Z M 20.96875 -75.890625 "/></g></g></g></svg>